<svg width="500" height="500" xmlns="http://www.w3.org/2000/svg" viewBox="0 0 100 100">
    <g>
        <title>Two Diamonds</title>
        <g stroke="null">
            <path id="svg_7" d="M 15.066666666666663 50 L 48.4 0 L 81.73333333333333 50 L 48.4 100 Z" fill="#000000">
            </path>
            <path id="svg_7" d="M 18.266666666666666 50 L 51.6 0 L 84.93333333333334 50 L 51.6 100 Z" fill="#000000">
            </path>
            <path id="svg_7" d="M 16.73333333333333 50 L 48.4 2.5 L 80.06666666666666 50 L 48.4 97.5 Z" fill="#0c0c0c">
            </path>
            <path id="svg_7" d="M 19.933333333333334 50 L 51.6 2.5 L 83.26666666666667 50 L 51.6 97.5 Z" fill="#0c0c0c">
            </path>
            <path id="svg_7" d="M 18.4 50 L 48.4 5 L 78.4 50 L 48.4 95 Z" fill="#191919"></path>
            <path id="svg_7" d="M 21.6 50 L 51.6 5 L 81.6 50 L 51.6 95 Z" fill="#191919"></path>
            <path id="svg_7" d="M 20.066666666666663 50 L 48.4 7.5 L 76.73333333333333 50 L 48.4 92.5 Z" fill="#262626">
            </path>
            <path id="svg_7" d="M 23.266666666666666 50 L 51.6 7.5 L 79.93333333333334 50 L 51.6 92.5 Z" fill="#262626">
            </path>
            <path id="svg_7" d="M 21.73333333333333 50 L 48.4 10 L 75.06666666666666 50 L 48.4 90 Z" fill="#333333">
            </path>
            <path id="svg_7" d="M 24.933333333333334 50 L 51.6 10 L 78.26666666666667 50 L 51.6 90 Z" fill="#333333">
            </path>
            <path id="svg_7" d="M 23.399999999999995 50 L 48.4 12.499999999999993 L 73.4 50 L 48.4 87.5 Z"
                fill="#3f3f3f"></path>
            <path id="svg_7" d="M 26.599999999999998 50 L 51.6 12.499999999999993 L 76.60000000000001 50 L 51.6 87.5 Z"
                fill="#3f3f3f"></path>
            <path id="svg_7" d="M 25.066666666666663 50 L 48.4 15 L 71.73333333333333 50 L 48.4 85 Z" fill="#4c4c4c">
            </path>
            <path id="svg_7" d="M 28.266666666666666 50 L 51.6 15 L 74.93333333333334 50 L 51.6 85 Z" fill="#4c4c4c">
            </path>
            <path id="svg_7" d="M 26.73333333333333 50 L 48.4 17.5 L 70.06666666666666 50 L 48.4 82.5 Z" fill="#595959">
            </path>
            <path id="svg_7" d="M 29.933333333333334 50 L 51.6 17.5 L 73.26666666666667 50 L 51.6 82.5 Z"
                fill="#595959"></path>
            <path id="svg_7" d="M 28.4 50 L 48.4 20 L 68.4 50 L 48.4 80 Z" fill="#666666"></path>
            <path id="svg_7" d="M 31.6 50 L 51.6 20 L 71.6 50 L 51.6 80 Z" fill="#666666"></path>
            <path id="svg_7" d="M 30.066666666666663 50 L 48.4 22.499999999999996 L 66.73333333333333 50 L 48.4 77.5 Z"
                fill="#727272"></path>
            <path id="svg_7" d="M 33.266666666666666 50 L 51.6 22.499999999999996 L 69.93333333333334 50 L 51.6 77.5 Z"
                fill="#727272"></path>
            <path id="svg_7" d="M 31.73333333333333 50 L 48.4 25 L 65.06666666666666 50 L 48.4 75 Z" fill="#7f7f7f">
            </path>
            <path id="svg_7" d="M 34.93333333333334 50 L 51.6 25 L 68.26666666666667 50 L 51.6 75 Z" fill="#7f7f7f">
            </path>
            <path id="svg_7" d="M 33.4 50 L 48.4 27.5 L 63.4 50 L 48.4 72.5 Z" fill="#8c8c8c"></path>
            <path id="svg_7" d="M 36.6 50 L 51.6 27.5 L 66.6 50 L 51.6 72.5 Z" fill="#8c8c8c"></path>
            <path id="svg_7" d="M 35.06666666666666 50 L 48.4 30 L 61.733333333333334 50 L 48.4 70 Z" fill="#999999">
            </path>
            <path id="svg_7" d="M 38.266666666666666 50 L 51.6 30 L 64.93333333333334 50 L 51.6 70 Z" fill="#999999">
            </path>
            <path id="svg_7" d="M 36.733333333333334 50 L 48.4 32.5 L 60.06666666666666 50 L 48.4 67.5 Z"
                fill="#a5a5a5"></path>
            <path id="svg_7" d="M 39.93333333333334 50 L 51.6 32.5 L 63.266666666666666 50 L 51.6 67.5 Z"
                fill="#a5a5a5"></path>
            <path id="svg_7" d="M 38.4 50 L 48.4 35 L 58.4 50 L 48.4 65 Z" fill="#b2b2b2"></path>
            <path id="svg_7" d="M 41.6 50 L 51.6 35 L 61.6 50 L 51.6 65 Z" fill="#b2b2b2"></path>
            <path id="svg_7" d="M 40.06666666666666 50 L 48.4 37.5 L 56.733333333333334 50 L 48.4 62.5 Z"
                fill="#bfbfbf"></path>
            <path id="svg_7" d="M 43.266666666666666 50 L 51.6 37.5 L 59.93333333333334 50 L 51.6 62.5 Z"
                fill="#bfbfbf"></path>
            <path id="svg_7" d="M 41.733333333333334 50 L 48.4 40 L 55.06666666666666 50 L 48.4 60 Z" fill="#cccccc">
            </path>
            <path id="svg_7" d="M 44.93333333333334 50 L 51.6 40 L 58.266666666666666 50 L 51.6 60 Z" fill="#cccccc">
            </path>
            <path id="svg_7" d="M 43.4 50 L 48.4 42.5 L 53.4 50 L 48.4 57.5 Z" fill="#d8d8d8"></path>
            <path id="svg_7" d="M 46.6 50 L 51.6 42.5 L 56.6 50 L 51.6 57.5 Z" fill="#d8d8d8"></path>
            <path id="svg_7" d="M 45.06666666666666 50 L 48.4 45 L 51.733333333333334 50 L 48.4 55 Z" fill="#e5e5e5">
            </path>
            <path id="svg_7" d="M 48.266666666666666 50 L 51.6 45 L 54.93333333333334 50 L 51.6 55 Z" fill="#e5e5e5">
            </path>
            <path id="svg_7" d="M 46.733333333333334 50 L 48.4 47.5 L 50.06666666666666 50 L 48.4 52.5 Z"
                fill="#f2f2f2"></path>
            <path id="svg_7" d="M 49.93333333333334 50 L 51.6 47.5 L 53.266666666666666 50 L 51.6 52.5 Z"
                fill="#f2f2f2"></path>
        </g>
    </g>
</svg>