<svg width="500" height="500" xmlns="http://www.w3.org/2000/svg" viewBox="0 0 100 100">
    <g>
        <title>Two Diamonds</title>
        <g stroke="null">
            <path id="svg_7" d="M 20.35141242937853 50 L 48.6 0 L 76.84858757062148 50 L 48.6 100 Z" fill="#000000">
            </path>
            <path id="svg_7" d="M 23.151412429378528 50 L 51.4 0 L 79.64858757062147 50 L 51.4 100 Z" fill="#000000">
            </path>
            <path id="svg_7"
                d="M 21.696583266074796 50 L 48.6 2.3809523809523867 L 75.5034167339252 50 L 48.6 97.61904761904762 Z"
                fill="#0c0c0c"></path>
            <path id="svg_7"
                d="M 24.496583266074794 50 L 51.4 2.3809523809523867 L 78.3034167339252 50 L 51.4 97.61904761904762 Z"
                fill="#0c0c0c"></path>
            <path id="svg_7"
                d="M 23.04175410277106 50 L 48.6 4.761904761904773 L 74.15824589722894 50 L 48.6 95.23809523809523 Z"
                fill="#181818"></path>
            <path id="svg_7"
                d="M 25.841754102771056 50 L 51.4 4.761904761904773 L 76.95824589722895 50 L 51.4 95.23809523809523 Z"
                fill="#181818"></path>
            <path id="svg_7"
                d="M 24.386924939467317 50 L 48.6 7.142857142857146 L 72.81307506053268 50 L 48.6 92.85714285714286 Z"
                fill="#242424"></path>
            <path id="svg_7"
                d="M 27.186924939467314 50 L 51.4 7.142857142857146 L 75.61307506053268 50 L 51.4 92.85714285714286 Z"
                fill="#242424"></path>
            <path id="svg_7"
                d="M 25.732095776163575 50 L 48.6 9.523809523809526 L 71.46790422383643 50 L 48.6 90.47619047619048 Z"
                fill="#303030"></path>
            <path id="svg_7"
                d="M 28.532095776163573 50 L 51.4 9.523809523809526 L 74.26790422383642 50 L 51.4 90.47619047619048 Z"
                fill="#303030"></path>
            <path id="svg_7"
                d="M 27.077266612859837 50 L 48.6 11.904761904761912 L 70.12273338714016 50 L 48.6 88.09523809523809 Z"
                fill="#3c3c3c"></path>
            <path id="svg_7"
                d="M 29.877266612859835 50 L 51.4 11.904761904761912 L 72.92273338714017 50 L 51.4 88.09523809523809 Z"
                fill="#3c3c3c"></path>
            <path id="svg_7"
                d="M 28.422437449556096 50 L 48.6 14.285714285714285 L 68.7775625504439 50 L 48.6 85.71428571428572 Z"
                fill="#484848"></path>
            <path id="svg_7"
                d="M 31.222437449556093 50 L 51.4 14.285714285714285 L 71.5775625504439 50 L 51.4 85.71428571428572 Z"
                fill="#484848"></path>
            <path id="svg_7"
                d="M 29.767608286252354 50 L 48.6 16.666666666666664 L 67.43239171374765 50 L 48.6 83.33333333333334 Z"
                fill="#555555"></path>
            <path id="svg_7"
                d="M 32.56760828625235 50 L 51.4 16.666666666666664 L 70.23239171374765 50 L 51.4 83.33333333333334 Z"
                fill="#555555"></path>
            <path id="svg_7"
                d="M 31.112779122948616 50 L 48.6 19.047619047619047 L 66.08722087705138 50 L 48.6 80.95238095238095 Z"
                fill="#616161"></path>
            <path id="svg_7"
                d="M 33.91277912294861 50 L 51.4 19.047619047619047 L 68.88722087705139 50 L 51.4 80.95238095238095 Z"
                fill="#616161"></path>
            <path id="svg_7"
                d="M 32.45794995964488 50 L 48.6 21.42857142857143 L 64.74205004035512 50 L 48.6 78.57142857142857 Z"
                fill="#6d6d6d"></path>
            <path id="svg_7"
                d="M 35.257949959644876 50 L 51.4 21.42857142857143 L 67.54205004035512 50 L 51.4 78.57142857142857 Z"
                fill="#6d6d6d"></path>
            <path id="svg_7"
                d="M 33.80312079634113 50 L 48.6 23.80952380952381 L 63.39687920365887 50 L 48.6 76.19047619047619 Z"
                fill="#797979"></path>
            <path id="svg_7"
                d="M 36.60312079634113 50 L 51.4 23.80952380952381 L 66.19687920365887 50 L 51.4 76.19047619047619 Z"
                fill="#797979"></path>
            <path id="svg_7"
                d="M 35.1482916330374 50 L 48.6 26.190476190476193 L 62.0517083669626 50 L 48.6 73.80952380952381 Z"
                fill="#858585"></path>
            <path id="svg_7"
                d="M 37.9482916330374 50 L 51.4 26.190476190476193 L 64.8517083669626 50 L 51.4 73.80952380952381 Z"
                fill="#858585"></path>
            <path id="svg_7"
                d="M 36.49346246973366 50 L 48.6 28.571428571428573 L 60.706537530266345 50 L 48.6 71.42857142857143 Z"
                fill="#919191"></path>
            <path id="svg_7"
                d="M 39.293462469733655 50 L 51.4 28.571428571428573 L 63.50653753026634 50 L 51.4 71.42857142857143 Z"
                fill="#919191"></path>
            <path id="svg_7"
                d="M 37.83863330642992 50 L 48.6 30.952380952380956 L 59.36136669357008 50 L 48.6 69.04761904761904 Z"
                fill="#9d9d9d"></path>
            <path id="svg_7"
                d="M 40.63863330642992 50 L 51.4 30.952380952380956 L 62.16136669357008 50 L 51.4 69.04761904761904 Z"
                fill="#9d9d9d"></path>
            <path id="svg_7"
                d="M 39.18380414312618 50 L 48.6 33.33333333333333 L 58.01619585687382 50 L 48.6 66.66666666666667 Z"
                fill="#aaaaaa"></path>
            <path id="svg_7"
                d="M 41.98380414312618 50 L 51.4 33.33333333333333 L 60.81619585687382 50 L 51.4 66.66666666666667 Z"
                fill="#aaaaaa"></path>
            <path id="svg_7"
                d="M 40.528974979822436 50 L 48.6 35.714285714285715 L 56.67102502017757 50 L 48.6 64.28571428571428 Z"
                fill="#b6b6b6"></path>
            <path id="svg_7"
                d="M 43.32897497982243 50 L 51.4 35.714285714285715 L 59.471025020177564 50 L 51.4 64.28571428571428 Z"
                fill="#b6b6b6"></path>
            <path id="svg_7"
                d="M 41.8741458165187 50 L 48.6 38.095238095238095 L 55.325854183481304 50 L 48.6 61.904761904761905 Z"
                fill="#c2c2c2"></path>
            <path id="svg_7"
                d="M 44.674145816518696 50 L 51.4 38.095238095238095 L 58.1258541834813 50 L 51.4 61.904761904761905 Z"
                fill="#c2c2c2"></path>
            <path id="svg_7"
                d="M 43.21931665321496 50 L 48.6 40.47619047619048 L 53.98068334678504 50 L 48.6 59.52380952380952 Z"
                fill="#cecece"></path>
            <path id="svg_7"
                d="M 46.01931665321496 50 L 51.4 40.47619047619048 L 56.78068334678504 50 L 51.4 59.52380952380952 Z"
                fill="#cecece"></path>
            <path id="svg_7"
                d="M 44.56448748991122 50 L 48.6 42.85714285714286 L 52.63551251008878 50 L 48.6 57.14285714285714 Z"
                fill="#dadada"></path>
            <path id="svg_7"
                d="M 47.36448748991122 50 L 51.4 42.85714285714286 L 55.43551251008878 50 L 51.4 57.14285714285714 Z"
                fill="#dadada"></path>
            <path id="svg_7"
                d="M 45.909658326607484 50 L 48.6 45.23809523809524 L 51.29034167339252 50 L 48.6 54.76190476190476 Z"
                fill="#e6e6e6"></path>
            <path id="svg_7"
                d="M 48.70965832660748 50 L 51.4 45.23809523809524 L 54.090341673392516 50 L 51.4 54.76190476190476 Z"
                fill="#e6e6e6"></path>
            <path id="svg_7"
                d="M 47.25482916330374 50 L 48.6 47.61904761904762 L 49.94517083669626 50 L 48.6 52.38095238095238 Z"
                fill="#f2f2f2"></path>
            <path id="svg_7"
                d="M 50.05482916330374 50 L 51.4 47.61904761904762 L 52.74517083669626 50 L 51.4 52.38095238095238 Z"
                fill="#f2f2f2"></path>

        </g>
    </g>
</svg>