<svg width="500" height="500" xmlns="http://www.w3.org/2000/svg" viewBox="0 0 100 100">
    <g>
        <title>Two Diamonds</title>
        <g stroke="null">
            <path id="svg_7" d="M 15.266666666666666 50 L 48.6 0 L 81.93333333333334 50 L 48.6 100 Z" fill="#000000">
            </path>
            <path id="svg_7" d="M 18.066666666666663 50 L 51.4 0 L 84.73333333333333 50 L 51.4 100 Z" fill="#000000">
            </path>
            <path id="svg_7"
                d="M 16.85396825396825 50 L 48.6 2.3809523809523725 L 80.34603174603176 50 L 48.6 97.61904761904762 Z"
                fill="#0c0c0c"></path>
            <path id="svg_7"
                d="M 19.653968253968248 50 L 51.4 2.3809523809523725 L 83.14603174603175 50 L 51.4 97.61904761904762 Z"
                fill="#0c0c0c"></path>
            <path id="svg_7"
                d="M 18.44126984126984 50 L 48.6 4.761904761904759 L 78.75873015873016 50 L 48.6 95.23809523809524 Z"
                fill="#181818"></path>
            <path id="svg_7"
                d="M 21.241269841269837 50 L 51.4 4.761904761904759 L 81.55873015873016 50 L 51.4 95.23809523809524 Z"
                fill="#181818"></path>
            <path id="svg_7"
                d="M 20.02857142857143 50 L 48.6 7.142857142857139 L 77.17142857142858 50 L 48.6 92.85714285714286 Z"
                fill="#242424"></path>
            <path id="svg_7"
                d="M 22.828571428571426 50 L 51.4 7.142857142857139 L 79.97142857142858 50 L 51.4 92.85714285714286 Z"
                fill="#242424"></path>
            <path id="svg_7"
                d="M 21.615873015873014 50 L 48.6 9.523809523809518 L 75.58412698412698 50 L 48.6 90.47619047619048 Z"
                fill="#303030"></path>
            <path id="svg_7"
                d="M 24.41587301587301 50 L 51.4 9.523809523809518 L 78.384126984127 50 L 51.4 90.47619047619048 Z"
                fill="#303030"></path>
            <path id="svg_7"
                d="M 23.203174603174602 50 L 48.6 11.904761904761898 L 73.9968253968254 50 L 48.6 88.0952380952381 Z"
                fill="#3c3c3c"></path>
            <path id="svg_7"
                d="M 26.0031746031746 50 L 51.4 11.904761904761898 L 76.7968253968254 50 L 51.4 88.0952380952381 Z"
                fill="#3c3c3c"></path>
            <path id="svg_7"
                d="M 24.790476190476188 50 L 48.6 14.285714285714278 L 72.40952380952382 50 L 48.6 85.71428571428572 Z"
                fill="#484848"></path>
            <path id="svg_7"
                d="M 27.590476190476185 50 L 51.4 14.285714285714278 L 75.20952380952382 50 L 51.4 85.71428571428572 Z"
                fill="#484848"></path>
            <path id="svg_7"
                d="M 26.37777777777778 50 L 48.6 16.66666666666667 L 70.82222222222222 50 L 48.6 83.33333333333333 Z"
                fill="#555555"></path>
            <path id="svg_7"
                d="M 29.177777777777777 50 L 51.4 16.66666666666667 L 73.62222222222222 50 L 51.4 83.33333333333333 Z"
                fill="#555555"></path>
            <path id="svg_7"
                d="M 27.965079365079365 50 L 48.6 19.047619047619044 L 69.23492063492064 50 L 48.6 80.95238095238096 Z"
                fill="#616161"></path>
            <path id="svg_7"
                d="M 30.765079365079362 50 L 51.4 19.047619047619044 L 72.03492063492064 50 L 51.4 80.95238095238096 Z"
                fill="#616161"></path>
            <path id="svg_7"
                d="M 29.552380952380954 50 L 48.6 21.42857142857143 L 67.64761904761905 50 L 48.6 78.57142857142857 Z"
                fill="#6d6d6d"></path>
            <path id="svg_7"
                d="M 32.352380952380955 50 L 51.4 21.42857142857143 L 70.44761904761904 50 L 51.4 78.57142857142857 Z"
                fill="#6d6d6d"></path>
            <path id="svg_7"
                d="M 31.13968253968254 50 L 48.6 23.809523809523807 L 66.06031746031746 50 L 48.6 76.19047619047619 Z"
                fill="#797979"></path>
            <path id="svg_7"
                d="M 33.939682539682536 50 L 51.4 23.809523809523807 L 68.86031746031746 50 L 51.4 76.19047619047619 Z"
                fill="#797979"></path>
            <path id="svg_7"
                d="M 32.72698412698413 50 L 48.6 26.190476190476186 L 64.47301587301588 50 L 48.6 73.80952380952381 Z"
                fill="#858585"></path>
            <path id="svg_7"
                d="M 35.526984126984125 50 L 51.4 26.190476190476186 L 67.27301587301588 50 L 51.4 73.80952380952381 Z"
                fill="#858585"></path>
            <path id="svg_7"
                d="M 34.31428571428572 50 L 48.6 28.57142857142857 L 62.885714285714286 50 L 48.6 71.42857142857143 Z"
                fill="#919191"></path>
            <path id="svg_7"
                d="M 37.114285714285714 50 L 51.4 28.57142857142857 L 65.68571428571428 50 L 51.4 71.42857142857143 Z"
                fill="#919191"></path>
            <path id="svg_7"
                d="M 35.9015873015873 50 L 48.6 30.95238095238095 L 61.298412698412704 50 L 48.6 69.04761904761905 Z"
                fill="#9d9d9d"></path>
            <path id="svg_7"
                d="M 38.701587301587296 50 L 51.4 30.95238095238095 L 64.0984126984127 50 L 51.4 69.04761904761905 Z"
                fill="#9d9d9d"></path>
            <path id="svg_7"
                d="M 37.488888888888894 50 L 48.6 33.333333333333336 L 59.71111111111111 50 L 48.6 66.66666666666666 Z"
                fill="#aaaaaa"></path>
            <path id="svg_7"
                d="M 40.28888888888889 50 L 51.4 33.333333333333336 L 62.511111111111106 50 L 51.4 66.66666666666666 Z"
                fill="#aaaaaa"></path>
            <path id="svg_7"
                d="M 39.076190476190476 50 L 48.6 35.714285714285715 L 58.12380952380953 50 L 48.6 64.28571428571428 Z"
                fill="#b6b6b6"></path>
            <path id="svg_7"
                d="M 41.87619047619047 50 L 51.4 35.714285714285715 L 60.923809523809524 50 L 51.4 64.28571428571428 Z"
                fill="#b6b6b6"></path>
            <path id="svg_7"
                d="M 40.663492063492065 50 L 48.6 38.095238095238095 L 56.53650793650794 50 L 48.6 61.904761904761905 Z"
                fill="#c2c2c2"></path>
            <path id="svg_7"
                d="M 43.46349206349206 50 L 51.4 38.095238095238095 L 59.336507936507935 50 L 51.4 61.904761904761905 Z"
                fill="#c2c2c2"></path>
            <path id="svg_7"
                d="M 42.25079365079365 50 L 48.6 40.476190476190474 L 54.94920634920635 50 L 48.6 59.523809523809526 Z"
                fill="#cecece"></path>
            <path id="svg_7"
                d="M 45.05079365079365 50 L 51.4 40.476190476190474 L 57.74920634920635 50 L 51.4 59.523809523809526 Z"
                fill="#cecece"></path>
            <path id="svg_7"
                d="M 43.83809523809524 50 L 48.6 42.85714285714286 L 53.36190476190476 50 L 48.6 57.14285714285714 Z"
                fill="#dadada"></path>
            <path id="svg_7"
                d="M 46.63809523809524 50 L 51.4 42.85714285714286 L 56.16190476190476 50 L 51.4 57.14285714285714 Z"
                fill="#dadada"></path>
            <path id="svg_7"
                d="M 45.425396825396824 50 L 48.6 45.23809523809524 L 51.77460317460318 50 L 48.6 54.76190476190476 Z"
                fill="#e6e6e6"></path>
            <path id="svg_7"
                d="M 48.22539682539682 50 L 51.4 45.23809523809524 L 54.574603174603176 50 L 51.4 54.76190476190476 Z"
                fill="#e6e6e6"></path>
            <path id="svg_7"
                d="M 47.01269841269841 50 L 48.6 47.61904761904762 L 50.18730158730159 50 L 48.6 52.38095238095238 Z"
                fill="#f2f2f2"></path>
            <path id="svg_7"
                d="M 49.81269841269841 50 L 51.4 47.61904761904762 L 52.98730158730159 50 L 51.4 52.38095238095238 Z"
                fill="#f2f2f2"></path>

        </g>
    </g>
</svg>