<svg width="500" height="500" xmlns="http://www.w3.org/2000/svg" viewBox="0 0 100 100">
    <g>
        <title>Two Diamonds</title>
        <g stroke="null">
            <path id="svg_7"
                d="M 21.567595628415297 50 L 48.89 -7.105427357601002e-15 L 76.21240437158471 50 L 48.89 100 Z"
                fill="#000000"></path>
            <path id="svg_7"
                d="M 23.787595628415296 50 L 51.11 -7.105427357601002e-15 L 78.43240437158471 50 L 51.11 100 Z"
                fill="#000000"></path>
            <path id="svg_7" d="M 22.933715846994538 50 L 48.89 2.5 L 74.84628415300546 50 L 48.89 97.5 Z"
                fill="#0c0c0c"></path>
            <path id="svg_7" d="M 25.153715846994537 50 L 51.11 2.5 L 77.06628415300545 50 L 51.11 97.5 Z"
                fill="#0c0c0c"></path>
            <path id="svg_7" d="M 24.29983606557377 50 L 48.89 5 L 73.48016393442623 50 L 48.89 95 Z" fill="#191919">
            </path>
            <path id="svg_7" d="M 26.51983606557377 50 L 51.11 5 L 75.70016393442623 50 L 51.11 95 Z" fill="#191919">
            </path>
            <path id="svg_7" d="M 25.665956284153005 50 L 48.89 7.499999999999993 L 72.114043715847 50 L 48.89 92.5 Z"
                fill="#262626"></path>
            <path id="svg_7" d="M 27.885956284153004 50 L 51.11 7.499999999999993 L 74.334043715847 50 L 51.11 92.5 Z"
                fill="#262626"></path>
            <path id="svg_7" d="M 27.03207650273224 50 L 48.89 10 L 70.74792349726776 50 L 48.89 90 Z" fill="#333333">
            </path>
            <path id="svg_7" d="M 29.25207650273224 50 L 51.11 10 L 72.96792349726776 50 L 51.11 90 Z" fill="#333333">
            </path>
            <path id="svg_7" d="M 28.398196721311475 50 L 48.89 12.5 L 69.38180327868852 50 L 48.89 87.5 Z"
                fill="#3f3f3f"></path>
            <path id="svg_7" d="M 30.618196721311474 50 L 51.11 12.5 L 71.60180327868852 50 L 51.11 87.5 Z"
                fill="#3f3f3f"></path>
            <path id="svg_7" d="M 29.764316939890712 50 L 48.89 15 L 68.0156830601093 50 L 48.89 85 Z" fill="#4c4c4c">
            </path>
            <path id="svg_7" d="M 31.98431693989071 50 L 51.11 15 L 70.2356830601093 50 L 51.11 85 Z" fill="#4c4c4c">
            </path>
            <path id="svg_7" d="M 31.130437158469945 50 L 48.89 17.5 L 66.64956284153006 50 L 48.89 82.5 Z"
                fill="#595959"></path>
            <path id="svg_7" d="M 33.350437158469944 50 L 51.11 17.5 L 68.86956284153005 50 L 51.11 82.5 Z"
                fill="#595959"></path>
            <path id="svg_7" d="M 32.49655737704918 50 L 48.89 19.999999999999996 L 65.28344262295082 50 L 48.89 80 Z"
                fill="#666666"></path>
            <path id="svg_7" d="M 34.71655737704918 50 L 51.11 19.999999999999996 L 67.50344262295081 50 L 51.11 80 Z"
                fill="#666666"></path>
            <path id="svg_7" d="M 33.86267759562841 50 L 48.89 22.5 L 63.91732240437159 50 L 48.89 77.5 Z"
                fill="#727272"></path>
            <path id="svg_7" d="M 36.08267759562841 50 L 51.11 22.5 L 66.13732240437159 50 L 51.11 77.5 Z"
                fill="#727272"></path>
            <path id="svg_7" d="M 35.22879781420765 50 L 48.89 24.999999999999996 L 62.55120218579235 50 L 48.89 75 Z"
                fill="#7f7f7f"></path>
            <path id="svg_7" d="M 37.44879781420765 50 L 51.11 24.999999999999996 L 64.77120218579235 50 L 51.11 75 Z"
                fill="#7f7f7f"></path>
            <path id="svg_7" d="M 36.594918032786886 50 L 48.89 27.5 L 61.185081967213115 50 L 48.89 72.5 Z"
                fill="#8c8c8c"></path>
            <path id="svg_7" d="M 38.814918032786885 50 L 51.11 27.5 L 63.405081967213114 50 L 51.11 72.5 Z"
                fill="#8c8c8c"></path>
            <path id="svg_7" d="M 37.96103825136612 50 L 48.89 30 L 59.81896174863388 50 L 48.89 70 Z" fill="#999999">
            </path>
            <path id="svg_7" d="M 40.18103825136612 50 L 51.11 30 L 62.03896174863388 50 L 51.11 70 Z" fill="#999999">
            </path>
            <path id="svg_7" d="M 39.32715846994536 50 L 48.89 32.5 L 58.45284153005464 50 L 48.89 67.5 Z"
                fill="#a5a5a5"></path>
            <path id="svg_7" d="M 41.54715846994536 50 L 51.11 32.5 L 60.67284153005464 50 L 51.11 67.5 Z"
                fill="#a5a5a5"></path>
            <path id="svg_7" d="M 40.693278688524586 50 L 48.89 35 L 57.086721311475415 50 L 48.89 65 Z" fill="#b2b2b2">
            </path>
            <path id="svg_7" d="M 42.913278688524585 50 L 51.11 35 L 59.306721311475414 50 L 51.11 65 Z" fill="#b2b2b2">
            </path>
            <path id="svg_7" d="M 42.05939890710383 50 L 48.89 37.5 L 55.720601092896175 50 L 48.89 62.5 Z"
                fill="#bfbfbf"></path>
            <path id="svg_7" d="M 44.279398907103825 50 L 51.11 37.5 L 57.94060109289617 50 L 51.11 62.5 Z"
                fill="#bfbfbf"></path>
            <path id="svg_7" d="M 43.42551912568306 50 L 48.89 40 L 54.35448087431694 50 L 48.89 60 Z" fill="#cccccc">
            </path>
            <path id="svg_7" d="M 45.64551912568306 50 L 51.11 40 L 56.57448087431694 50 L 51.11 60 Z" fill="#cccccc">
            </path>
            <path id="svg_7" d="M 44.79163934426229 50 L 48.89 42.5 L 52.98836065573771 50 L 48.89 57.5 Z"
                fill="#d8d8d8"></path>
            <path id="svg_7" d="M 47.01163934426229 50 L 51.11 42.5 L 55.20836065573771 50 L 51.11 57.5 Z"
                fill="#d8d8d8"></path>
            <path id="svg_7" d="M 46.157759562841534 50 L 48.89 45 L 51.62224043715847 50 L 48.89 55 Z" fill="#e5e5e5">
            </path>
            <path id="svg_7" d="M 48.37775956284153 50 L 51.11 45 L 53.842240437158466 50 L 51.11 55 Z" fill="#e5e5e5">
            </path>
            <path id="svg_7" d="M 47.52387978142077 50 L 48.89 47.5 L 50.256120218579234 50 L 48.89 52.5 Z"
                fill="#f2f2f2"></path>
            <path id="svg_7" d="M 49.743879781420766 50 L 51.11 47.5 L 52.47612021857923 50 L 51.11 52.5 Z"
                fill="#f2f2f2"></path>

        </g>
    </g>
</svg>